Coordinates
version=1
nRows=21
nColumns=27
inDegrees=yes

Units are S.I. units (second, meters, Newtons, ...)
If the header above contains a line with 'inDegrees', this indicates whether rotational values are in degrees (yes) or radians (no).

endheader
time	pelvis_rotation	pelvis_tilt	pelvis_list	pelvis_tx	pelvis_ty	pelvis_tz	hip_flexion_r	hip_adduction_r	hip_rotation_r	knee_angle_r	knee_rotation_r	knee_adduction_r	knee_angle_r_beta	ankle_angle_r	subtalar_angle_r	mtp_angle_r	hip_flexion_l	hip_adduction_l	hip_rotation_l	knee_angle_l	knee_rotation_l	knee_adduction_l	knee_angle_l_beta	ankle_angle_l	subtalar_angle_l	mtp_angle_l
     10.78500000	      2.02879692	    -27.18146439	      3.42249937	     -0.01980161	      0.90386320	     -1.19601954	     45.68324581	    -11.44300814	    -19.30647630	     22.81839562	      0.00000000	      8.25122666	      0.39825613	      1.72499236	      0.00000000	      0.00000000	     42.78889833	     -3.88363860	    -13.90675666	     16.07067560	      0.00000000	     -4.45662051	      0.28048620	     -2.63687415	      0.00000000	      0.00000000
     10.79000000	      2.23903823	    -25.87424688	      3.12572784	     -0.01683677	      0.90453259	     -1.19595505	     43.66442467	    -11.32333379	    -20.57926955	     22.10775832	      0.00000000	      9.00649001	      0.38585317	      1.60242192	      0.00000000	      0.00000000	     41.11673177	     -3.99984454	    -14.18442171	     15.62751454	      0.00000000	     -5.25588135	      0.27275158	     -2.65138848	      0.00000000	      0.00000000
     10.79500000	      2.03736827	    -26.46479360	      3.45799091	     -0.01823210	      0.90404585	     -1.19617073	     44.78955949	    -11.59046529	    -19.99556766	     22.73011458	      0.00000000	      8.99907245	      0.39671534	      1.78159595	      0.00000000	      0.00000000	     41.87454457	     -3.83355877	    -14.44660407	     15.88794810	      0.00000000	     -5.12010373	      0.27729701	     -2.60922426	      0.00000000	      0.00000000
     10.80000000	      2.07562645	    -26.79313331	      3.51032396	     -0.01895939	      0.90378941	     -1.19621788	     45.32360633	    -11.67318181	    -19.91878513	     23.00295241	      0.00000000	      8.99041754	      0.40147726	      1.82682801	      0.00000000	      0.00000000	     42.38578702	     -3.81857620	    -14.36455461	     16.13100677	      0.00000000	     -5.07128960	      0.28153918	     -2.54752576	      0.00000000	      0.00000000
     10.80500000	      1.97645552	    -27.25868242	      3.70399927	     -0.02007632	      0.90339659	     -1.19633805	     46.16877925	    -11.83055293	    -19.54591743	     23.44474013	      0.00000000	      8.97531662	      0.40918791	      1.91678146	      0.00000000	      0.00000000	     43.03242096	     -3.74079039	    -14.47824484	     16.39487930	      0.00000000	     -4.98649818	      0.28614462	     -2.49192371	      0.00000000	      0.00000000
     10.81000000	      1.97593584	    -27.64258880	      3.85154976	     -0.02097870	      0.90307089	     -1.19646011	     46.84691539	    -11.98194274	    -19.33288087	     23.80896736	      0.00000000	      8.96587167	      0.41554487	      1.99167182	      0.00000000	      0.00000000	     43.58997578	     -3.66104394	    -14.46439033	     16.62334633	      0.00000000	     -4.90204109	      0.29013213	     -2.46082430	      0.00000000	      0.00000000
     10.81500000	      1.86006837	    -28.17098755	      4.11969855	     -0.02226100	      0.90260940	     -1.19664107	     47.82917509	    -12.18405722	    -18.85882990	     24.32140907	      0.00000000	      8.94207314	      0.42448867	      2.11023783	      0.00000000	      0.00000000	     44.30407914	     -3.53783238	    -14.63286241	     16.89179712	      0.00000000	     -4.80981870	      0.29481748	     -2.41022743	      0.00000000	      0.00000000
     10.82000000	      1.71660112	    -28.72997158	      4.41070860	     -0.02363046	      0.90212901	     -1.19685222	     48.88300703	    -12.38869084	    -18.31543941	     24.87092497	      0.00000000	      8.91255697	      0.43407953	      2.20541111	      0.00000000	      0.00000000	     45.04861460	     -3.41179632	    -14.83255194	     17.15906798	      0.00000000	     -4.68413364	      0.29948223	     -2.36969902	      0.00000000	      0.00000000
     10.82500000	      1.62510400	    -29.25192998	      4.66309478	     -0.02493330	      0.90164591	     -1.19702999	     49.85069903	    -12.56788243	    -17.86895663	     25.36657539	      0.00000000	      8.88920033	      0.44273026	      2.30084339	      0.00000000	      0.00000000	     45.76846378	     -3.30462111	    -14.95981744	     17.43959465	      0.00000000	     -4.55992639	      0.30437835	     -2.31822547	      0.00000000	      0.00000000
     10.83000000	      1.71534969	    -31.85809102	      4.88052667	     -0.03048008	      0.90012824	     -1.19701071	     53.61841866	    -12.57159895	    -16.47953288	     26.55745386	      0.00000000	      7.99066342	      0.46351501	      2.35739706	      0.00000000	      0.00000000	     49.46664801	     -3.38003963	    -14.06561576	     18.79633764	      0.00000000	     -3.52523526	      0.32805798	     -2.07014475	      0.00000000	      0.00000000
     10.83500000	      1.38079092	    -30.43447698	      5.36536037	     -0.02784782	      0.90060096	     -1.19757344	     52.08908408	    -13.01611898	    -16.66724103	     26.48446349	      0.00000000	      8.81209736	      0.46224109	      2.47983289	      0.00000000	      0.00000000	     47.31179998	     -2.97051460	    -15.37771886	     17.93100953	      0.00000000	     -4.26828871	      0.31295515	     -2.27395822	      0.00000000	      0.00000000
     10.84000000	      1.08472025	    -31.06317463	      5.79680722	     -0.02952724	      0.89993817	     -1.19784477	     53.37678653	    -13.19682424	    -15.75048708	     27.13793857	      0.00000000	      8.75577141	      0.47364638	      2.59641747	      0.00000000	      0.00000000	     48.10298134	     -2.83271887	    -15.87115592	     18.21627581	      0.00000000	     -4.15773131	      0.31793399	     -2.19020697	      0.00000000	      0.00000000
     10.84500000	      1.54929454	    -32.44964180	      6.45650120	     -0.03256848	      0.89892338	     -1.19858960	     55.63655775	    -13.82429188	    -15.31319497	     28.14915697	      0.00000000	      8.73150804	      0.49129547	      2.76851480	      0.00000000	      0.00000000	     50.01508964	     -2.30890112	    -15.23264940	     18.70282490	      0.00000000	     -3.44593244	      0.32642587	     -2.22648791	      0.00000000	      0.00000000
     10.85000000	      1.39239913	    -31.64687817	      6.08354554	     -0.03119075	      0.89925832	     -1.19819807	     54.45205734	    -13.53656404	    -15.58973083	     27.76217456	      0.00000000	      8.76582612	      0.48454135	      2.68877804	      0.00000000	      0.00000000	     49.05495069	     -2.59791628	    -15.52875639	     18.59718377	      0.00000000	     -3.94213207	      0.32458209	     -2.18041025	      0.00000000	      0.00000000
     10.85500000	      1.61200907	    -33.49931654	      6.47827923	     -0.03511844	      0.89802664	     -1.19847765	     57.25592298	    -13.77143858	    -14.90826987	     28.77048885	      0.00000000	      8.63668908	      0.50213976	      2.77372197	      0.00000000	      0.00000000	     51.66431393	     -2.47483751	    -14.99489341	     19.49913179	      0.00000000	     -3.25851900	      0.34032405	     -2.06411028	      0.00000000	      0.00000000
     10.86000000	      0.91908099	    -32.98543533	      7.26407096	     -0.03482210	      0.89780317	     -1.19907763	     57.29423729	    -14.05386534	    -13.50071225	     29.19463985	      0.00000000	      8.63696231	      0.50954259	      2.88420619	      0.00000000	      0.00000000	     50.68413623	     -2.09367639	    -16.61530359	     19.03881359	      0.00000000	     -3.64931900	      0.33228998	     -2.14974444	      0.00000000	      0.00000000
     10.86500000	      1.34266423	    -34.87738705	      8.15595061	     -0.03894425	      0.89641162	     -1.19992966	     60.37953213	    -14.61902835	    -12.51735493	     30.39410116	      0.00000000	      8.53277203	      0.53047714	      3.01851196	      0.00000000	      0.00000000	     53.24044664	     -1.57389812	    -16.19338713	     19.70058903	      0.00000000	     -2.86350182	      0.34384014	     -2.13000104	      0.00000000	      0.00000000
     10.87000000	      1.47974876	    -33.19190160	      7.31689472	     -0.03568342	      0.89737701	     -1.19924350	     57.66122877	    -14.33836088	    -13.85778803	     29.51929045	      0.00000000	      8.68379296	      0.51520881	      2.93647484	      0.00000000	      0.00000000	     51.20864949	     -1.91761687	    -15.99165594	     19.28415231	      0.00000000	     -3.55756788	      0.33657195	     -2.15643625	      0.00000000	      0.00000000
     10.87500000	      1.59792299	    -34.40562429	      8.09703660	     -0.03855963	      0.89630966	     -1.19991202	     59.84878325	    -14.76992369	    -12.82804249	     30.46283159	      0.00000000	      8.60418046	      0.53167671	      3.04060338	      0.00000000	      0.00000000	     52.80579485	     -1.50308192	    -16.10534254	     19.68559375	      0.00000000	     -3.11001195	      0.34357843	     -2.15299478	      0.00000000	      0.00000000
     10.88000000	      1.84906105	    -35.62689130	      7.94789312	     -0.04139254	      0.89545277	     -1.19957021	     61.45670932	    -14.46079957	    -12.10649713	     30.82120222	      0.00000000	      7.73643273	      0.53793146	      2.93159805	      0.00000000	      0.00000000	     54.71006389	     -1.76098610	    -15.39323422	     20.51711143	      0.00000000	     -2.69041152	      0.35809115	     -1.97801281	      0.00000000	      0.00000000
     10.88500000	      2.68684904	    -35.72511181	      8.92815257	     -0.04176318	      0.89495035	     -1.20082267	     62.09269647	    -15.65035465	    -12.64652772	     31.56542938	      0.00000000	      8.61472192	      0.55092067	      3.24063002	      0.00000000	      0.00000000	     54.85013411	     -0.76645827	    -15.21409655	     20.26441382	      0.00000000	     -2.52675507	      0.35368074	     -2.17733327	      0.00000000	      0.00000000
